<svg id="bf4621fb-a1ca-4994-87c8-e097d7499620" data-name="Calque 1" xmlns="http://www.w3.org/2000/svg" viewBox="0 0 150.23622 141.73228"><path d="M19.42568,2.10963l-.09814.686H17.54287V4.14674h1.55371v.686H17.54287v1.4209h1.91064v.69287h-2.835V2.10963ZM18.60683.39479l.34961.69971-1.603.58105-.231-.46191Z" style="fill:#565655"/><path d="M22.97842,3.43581a1.17415,1.17415,0,0,1,.27636.82959V6.94655h-.896v-2.541a.71029.71029,0,0,0-.11573-.46191.42391.42391,0,0,0-.33935-.1333.66647.66647,0,0,0-.41651.14355,1.64757,1.64757,0,0,0-.36035.41651V6.94655h-.896V3.24342h.77685l.07032.48291a1.37655,1.37655,0,0,1,1.127-.58789A1.00471,1.00471,0,0,1,22.97842,3.43581Z" style="fill:#565655"/><path d="M27.31484,5.37135H24.99062a1.1742,1.1742,0,0,0,.28028.77.86315.86315,0,0,0,.62988.231,1.31634,1.31634,0,0,0,.46191-.08008,2.164,2.164,0,0,0,.46192-.24853l.37109.51074a2.1308,2.1308,0,0,1-1.37207.49707A1.651,1.651,0,0,1,24.518,6.53346a2.05721,2.05721,0,0,1-.4585-1.41406,2.5316,2.5316,0,0,1,.19629-1.01855,1.61418,1.61418,0,0,1,.56689-.707,1.68842,1.68842,0,0,1,2.08594.23829,2.03555,2.03555,0,0,1,.42725,1.37548C27.33584,5.05446,27.32851,5.17555,27.31484,5.37135Zm-.86816-.623q0-.97266-.72119-.97266a.61237.61237,0,0,0-.51416.24121,1.43807,1.43807,0,0,0-.22071.77393h1.45606Z" style="fill:#565655"/><path d="M30.33828,3.1946l-.15381.86816a1.3372,1.3372,0,0,0-.3291-.042.62961.62961,0,0,0-.51807.23437,1.80393,1.80393,0,0,0-.30078.71729V6.94655h-.896V3.24342h.77685l.084.728a1.33123,1.33123,0,0,1,.38526-.6123.87045.87045,0,0,1,.581-.21338A1.3168,1.3168,0,0,1,30.33828,3.1946Z" style="fill:#565655"/><path d="M34.02724,3.43971a3.41806,3.41806,0,0,1-1.0708.126,1.22744,1.22744,0,0,1,.50733.38135.9473.9473,0,0,1,.16455.57031,1.17448,1.17448,0,0,1-.17822.644,1.20735,1.20735,0,0,1-.51807.44092,1.83564,1.83564,0,0,1-.79443.16113,1.56647,1.56647,0,0,1-.44092-.05566.31675.31675,0,0,0-.1543.273q0,.25854.44824.25879h.5669a1.76829,1.76829,0,0,1,.71045.13281,1.096,1.096,0,0,1,.47265.37451.92924.92924,0,0,1,.168.54248.98515.98515,0,0,1-.47607.87158,2.511,2.511,0,0,1-1.37207.31153,3.083,3.083,0,0,1-1.01172-.13281.97068.97068,0,0,1-.52149-.38526,1.21879,1.21879,0,0,1-.1538-.644h.80517a.55845.55845,0,0,0,.07324.3081.45467.45467,0,0,0,.26612.168,2.09769,2.09769,0,0,0,.55664.05616,1.49126,1.49126,0,0,0,.7207-.126.401.401,0,0,0,.21-.36426.378.378,0,0,0-.16064-.32519.799.799,0,0,0-.46924-.11573h-.56006a1.29224,1.29224,0,0,1-.791-.20263.61913.61913,0,0,1-.26562-.51123.69537.69537,0,0,1,.11523-.37793.98228.98228,0,0,1,.31836-.30811,1.22361,1.22361,0,0,1-.49316-.43066,1.14363,1.14363,0,0,1-.15772-.61231,1.25291,1.25291,0,0,1,.19629-.70019,1.292,1.292,0,0,1,.54248-.46534,1.835,1.835,0,0,1,.79444-.16455,3.30488,3.30488,0,0,0,.94824-.0874,3.95333,3.95333,0,0,0,.78076-.32568Zm-2.41113.50049a.74286.74286,0,0,0-.17187.51416.77039.77039,0,0,0,.17529.53223.7069.7069,0,0,0,.97314.00342.79985.79985,0,0,0,.168-.54248q0-.7002-.67236-.7002A.59944.59944,0,0,0,31.61611,3.9402Z" style="fill:#565655"/><path d="M35.41738,1.52516a.52729.52729,0,0,1,.15723.38819.51611.51611,0,0,1-.15723.38525.56168.56168,0,0,1-.40967.15381.55134.55134,0,0,1-.40234-.15381.51652.51652,0,0,1-.15772-.38525.52771.52771,0,0,1,.15772-.38819.54453.54453,0,0,1,.40234-.15771A.55459.55459,0,0,1,35.41738,1.52516Zm.04541,1.71826V6.94655h-.896V3.24342Z" style="fill:#565655"/><path d="M39.55752,5.37135H37.2333a1.17425,1.17425,0,0,0,.28027.77.86318.86318,0,0,0,.62988.231,1.31635,1.31635,0,0,0,.46192-.08008,2.16373,2.16373,0,0,0,.46191-.24853l.3711.51074a2.13083,2.13083,0,0,1-1.37207.49707,1.651,1.651,0,0,1-1.30567-.51807,2.05726,2.05726,0,0,1-.45849-1.41406,2.5316,2.5316,0,0,1,.19629-1.01855,1.61411,1.61411,0,0,1,.56689-.707,1.68842,1.68842,0,0,1,2.08594.23829,2.03554,2.03554,0,0,1,.42724,1.37548C39.57851,5.05446,39.57119,5.17555,39.55752,5.37135Zm-.86817-.623q0-.97266-.72119-.97266a.61238.61238,0,0,0-.51416.24121,1.43817,1.43817,0,0,0-.2207.77393h1.456Z" style="fill:#565655"/><path d="M45.34658,2.10963l-.1958.686H43.39345l-.1958,1.35107h1.53321l-.09131.686H43.10683l-.19629,1.4209h1.88331l-.09815.69287H41.89541l.6792-4.83692Z" style="fill:#565655"/><path d="M48.99355,1.31178a8.96489,8.96489,0,0,0-.57715.96241,4.17981,4.17981,0,0,0-.33593.9624,5.7114,5.7114,0,0,0-.12256,1.25976,5.679,5.679,0,0,0,.12256,1.25342,4.3226,4.3226,0,0,0,.33593.96924,8.10066,8.10066,0,0,0,.57715.9624l-.40576.28028q-.46215-.65846-.71045-1.08155A4.4353,4.4353,0,0,1,47.45742,5.865a4.91224,4.91224,0,0,1-.17188-1.36866,4.911,4.911,0,0,1,.17188-1.36816,4.43558,4.43558,0,0,1,.41992-1.01514q.2483-.42333.71045-1.08154Z" style="fill:#565655"/><path d="M52.71035,5.32253h-2.352a1.43671,1.43671,0,0,0,.3081.896.89238.89238,0,0,0,.686.28711,1.49942,1.49942,0,0,0,.48975-.07715,1.96753,1.96753,0,0,0,.46923-.24511l.27979.38525a2.03851,2.03851,0,0,1-1.28809.46191,1.49361,1.49361,0,0,1-1.20019-.5039,2.06529,2.06529,0,0,1-.43067-1.38623,2.62975,2.62975,0,0,1,.18555-1.01856A1.59951,1.59951,0,0,1,50.39,3.42555a1.34839,1.34839,0,0,1,.81543-.25195,1.36884,1.36884,0,0,1,1.127.48291,2.066,2.066,0,0,1,.39209,1.33691Q52.72451,5.15457,52.71035,5.32253Zm-.623-.51807a1.36532,1.36532,0,0,0-.21679-.833.76518.76518,0,0,0-.65137-.28711q-.791,0-.86084,1.16211h1.729Z" style="fill:#565655"/><path d="M56.93838,2.12331l-1.54,4.82324h-.71387l-1.5542-4.82324h.71387l1.21094,4.10205,1.21142-4.102Z" style="fill:#565655"/><path d="M58.37685,2.11305a4.45713,4.45713,0,0,1,.41993,1.01514,4.93071,4.93071,0,0,1,.17138,1.36816A4.932,4.932,0,0,1,58.79678,5.865a4.45685,4.45685,0,0,1-.41993,1.01513q-.24828.42335-.71045,1.08155l-.40625-.28028a8.10938,8.10938,0,0,0,.57764-.9624,4.32211,4.32211,0,0,0,.33594-.96924,5.7087,5.7087,0,0,0,.12256-1.25342,5.74118,5.74118,0,0,0-.12256-1.25976,4.17935,4.17935,0,0,0-.33594-.9624,8.97576,8.97576,0,0,0-.57764-.96241l.40625-.28027Q58.12857,1.69,58.37685,2.11305Z" style="fill:#565655"/><g id="b4cb2663-1125-4fe4-9d16-f339276b8e9b" data-name="axes xy"><line x1="12.28465" y1="6.57871" x2="12.28465" y2="65.00993" style="fill:none;stroke:#6e6e6e;stroke-linecap:round;stroke-miterlimit:10;stroke-width:0.699999988079071px"/><polygon points="10.539 7.089 12.284 4.067 14.03 7.089 10.539 7.089" style="fill:#6e6e6e"/></g><path d="M5.52334,23.89577l-.147.53222h-1.855l-.22363,1.5752H4.90761l-.07031.53174H3.22744l-.231,1.65185h1.981l-.07666.53223H2.26162l.67871-4.82324Z" style="fill:#c92920"/><path d="M7.65517,29.0696a.77077.77077,0,0,1,.189.55029v1.76318h-.4292V29.68092a.54491.54491,0,0,0-.09815-.36865.3722.3722,0,0,0-.28906-.10742.56035.56035,0,0,0-.34521.1123,1.1513,1.1513,0,0,0-.27979.32178v1.74414h-.4292v-2.458h.36866l.0371.36377a.9785.9785,0,0,1,.32422-.30761.83642.83642,0,0,1,.42676-.11182A.68727.68727,0,0,1,7.65517,29.0696Z" style="fill:#c92920"/><line x1="10.06952" y1="26.71038" x2="110.00497" y2="26.71038" style="fill:none;stroke:#c92920;stroke-linecap:round;stroke-miterlimit:10;stroke-width:0.75px"/><path d="M4.59658,52.80983l-.147.53223h-1.855L2.371,54.91725H3.98086l-.07032.53223H2.30068l-.231,1.65137h1.981l-.07666.53222H1.33486l.67871-4.82324Z" style="fill:#80a040"/><path d="M7.99941,57.98659a.78932.78932,0,0,1,.18164.54785v1.76269H7.75234V58.595q0-.47609-.34521-.47559a.46292.46292,0,0,0-.30811.10449,1.48261,1.48261,0,0,0-.27051.3291v1.74414h-.4292V58.595q0-.47609-.34472-.47559a.4656.4656,0,0,0-.3125.10645A1.48415,1.48415,0,0,0,5.476,58.553v1.74414H5.04678v-2.458h.36865l.03711.35937a.82232.82232,0,0,1,.709-.415.65057.65057,0,0,1,.38965.11621.64216.64216,0,0,1,.231.32618,1.1534,1.1534,0,0,1,.31933-.32813.73822.73822,0,0,1,.4126-.11426A.61908.61908,0,0,1,7.99941,57.98659Z" style="fill:#80a040"/><line x1="10.04826" y1="55.6243" x2="110.00497" y2="55.6243" style="fill:none;stroke:#80a040;stroke-linecap:round;stroke-miterlimit:10;stroke-width:0.75px"/><path d="M19.38271,22.63551l-.36426-1.21093H17.19179l-.36425,1.21093h-.67188l1.54688-4.82324h.84033l1.54,4.82324Zm-2.03027-1.75h1.50537l-.749-2.52Z" style="fill:#2a2a29"/><path d="M22.65176,22.46755a1.41665,1.41665,0,0,1-.82569.252.973.973,0,0,1-.73144-.26953,1.07271,1.07271,0,0,1-.2627-.78028V19.44362h-.644v-.49707h.644v-.833l.644-.07715v.91016h.875l-.07031.49707H21.476v2.19775a.67624.67624,0,0,0,.10157.41651.405.405,0,0,0,.33935.12939,1.0559,1.0559,0,0,0,.49024-.147Z" style="fill:#2a2a29"/><path d="M25.80508,19.38063a2.13327,2.13327,0,0,1,.43066,1.40674,2.45737,2.45737,0,0,1-.1958,1.01172,1.53576,1.53576,0,0,1-.56738.67871,1.57822,1.57822,0,0,1-.88184.2417,1.4918,1.4918,0,0,1-1.21094-.51807,2.121,2.121,0,0,1-.43408-1.40674A2.44942,2.44942,0,0,1,23.142,19.783a1.53556,1.53556,0,0,1,.56689-.67919,1.59487,1.59487,0,0,1,.88868-.24122A1.483,1.483,0,0,1,25.80508,19.38063Zm-2.16651,1.41406q0,1.407.95215,1.40674.95216,0,.95215-1.41406,0-1.407-.94531-1.40674Q23.63882,19.38063,23.63857,20.79469Z" style="fill:#2a2a29"/><path d="M31.73037,19.16725a1.18279,1.18279,0,0,1,.27344.82227v2.646h-.64453V20.08034q0-.71339-.51758-.71387a.69831.69831,0,0,0-.46192.15772,2.20569,2.20569,0,0,0-.40625.49316v2.61816H29.33V20.08034q0-.71339-.51856-.71387a.69736.69736,0,0,0-.46875.16113,2.21294,2.21294,0,0,0-.39892.48975v2.61816h-.644v-3.689h.55274l.05615.53906a1.23579,1.23579,0,0,1,1.064-.62305.97425.97425,0,0,1,.585.17481.95493.95493,0,0,1,.3457.49023,1.74479,1.74479,0,0,1,.47949-.49365,1.11081,1.11081,0,0,1,.62012-.17139A.92886.92886,0,0,1,31.73037,19.16725Z" style="fill:#2a2a29"/><path d="M36.07021,21.01149H33.71865a1.44258,1.44258,0,0,0,.30762.896.89416.89416,0,0,0,.68652.28711,1.50453,1.50453,0,0,0,.49024-.07715,1.95619,1.95619,0,0,0,.46875-.24512l.28027.38525a2.03946,2.03946,0,0,1-1.28809.46192,1.495,1.495,0,0,1-1.20117-.50391,2.07016,2.07016,0,0,1-.42969-1.38623,2.62067,2.62067,0,0,1,.18555-1.01855,1.59768,1.59768,0,0,1,.53125-.69629,1.35047,1.35047,0,0,1,.81543-.252,1.36694,1.36694,0,0,1,1.12695.48291,2.06322,2.06322,0,0,1,.39258,1.33692Q36.08486,20.84352,36.07021,21.01149Zm-.62207-.51807a1.36508,1.36508,0,0,0-.21777-.833.76325.76325,0,0,0-.65039-.28711q-.791,0-.86133,1.16211h1.72949Z" style="fill:#2a2a29"/><path d="M40.29189,17.00075a8.98869,8.98869,0,0,0-.57812.9624,4.25007,4.25007,0,0,0-.33594.9624,6.52872,6.52872,0,0,0,0,2.51319,4.39647,4.39647,0,0,0,.33594.96923,8.12146,8.12146,0,0,0,.57812.96241l-.40625.28027q-.46142-.65844-.71094-1.08154a4.47982,4.47982,0,0,1-.41992-1.01514,5.56393,5.56393,0,0,1,0-2.73682A4.47953,4.47953,0,0,1,39.1747,17.802q.249-.42334.71094-1.08155Z" style="fill:#2a2a29"/><path d="M44.00771,21.01149H41.65615a1.44258,1.44258,0,0,0,.30762.896.89416.89416,0,0,0,.68652.28711,1.50453,1.50453,0,0,0,.49024-.07715,1.95619,1.95619,0,0,0,.46875-.24512l.28027.38525a2.03946,2.03946,0,0,1-1.28809.46192,1.495,1.495,0,0,1-1.20117-.50391,2.07016,2.07016,0,0,1-.42969-1.38623,2.62067,2.62067,0,0,1,.18555-1.01855,1.59768,1.59768,0,0,1,.53125-.69629,1.35047,1.35047,0,0,1,.81543-.252,1.36694,1.36694,0,0,1,1.12695.48291,2.06322,2.06322,0,0,1,.39258,1.33692Q44.02236,20.84352,44.00771,21.01149Zm-.62207-.51807a1.36508,1.36508,0,0,0-.21777-.833.76325.76325,0,0,0-.65039-.28711q-.791,0-.86133,1.16211h1.72949Zm-.30859-3.46484.28711.53906-1.48438.602-.19531-.34326Z" style="fill:#2a2a29"/><path d="M46.914,22.46755a1.41921,1.41921,0,0,1-.82617.252.97379.97379,0,0,1-.73144-.26953,1.07481,1.07481,0,0,1-.2627-.78028V19.44362H44.4501v-.49707h.64355v-.833l.64355-.07715v.91016h.875l-.06933.49707H45.7372v2.19775a.6795.6795,0,0,0,.10157.41651.40664.40664,0,0,0,.33984.12939,1.0575,1.0575,0,0,0,.49024-.147Z" style="fill:#2a2a29"/><path d="M50.09072,22.10719a.47539.47539,0,0,0,.23145.16455l-.14747.44776a.98728.98728,0,0,1-.46191-.16113.74124.74124,0,0,1-.25879-.39209,1.23556,1.23556,0,0,1-1.09863.55322,1.178,1.178,0,0,1-.86133-.30811,1.07468,1.07468,0,0,1-.31445-.80468,1.05772,1.05772,0,0,1,.42285-.90333,1.98263,1.98263,0,0,1,1.20117-.31494H49.37v-.27295a.71821.71821,0,0,0-.18848-.56005.85731.85731,0,0,0-.581-.168,3.23983,3.23983,0,0,0-.99414.19629l-.16114-.46924a3.71156,3.71156,0,0,1,1.27442-.252,1.33122,1.33122,0,0,1,.97265.31836,1.21841,1.21841,0,0,1,.32227.90674v1.687A.58287.58287,0,0,0,50.09072,22.10719Zm-.7207-.44482v-.84668H48.8876q-1.02247,0-1.02247.75586a.69268.69268,0,0,0,.16114.49707.62931.62931,0,0,0,.47558.168A.96107.96107,0,0,0,49.37,21.66237Z" style="fill:#2a2a29"/><path d="M53.2001,22.46755a1.41926,1.41926,0,0,1-.82618.252.97379.97379,0,0,1-.73144-.26953,1.07481,1.07481,0,0,1-.2627-.78028V19.44362h-.64355v-.49707h.64355v-.833l.64356-.07715v.91016h.875l-.06934.49707h-.80566v2.19775a.67958.67958,0,0,0,.10156.41651.40664.40664,0,0,0,.33984.12939,1.05747,1.05747,0,0,0,.49024-.147Z" style="fill:#2a2a29"/><path d="M58.24306,19.16335a1.15456,1.15456,0,0,1,.28321.82617v2.646h-.64356V20.08034a.80771.80771,0,0,0-.15039-.55274.5699.5699,0,0,0-.4375-.16113.83258.83258,0,0,0-.51172.168,1.80763,1.80763,0,0,0-.41992.47607v2.625h-.64355v-5.166l.64355-.06983v2.05762a1.30678,1.30678,0,0,1,1.09277-.59473A1.03082,1.03082,0,0,1,58.24306,19.16335Z" style="fill:#2a2a29"/><path d="M62.38271,22.10719a.47539.47539,0,0,0,.23145.16455l-.14746.44776a.98728.98728,0,0,1-.46192-.16113.74124.74124,0,0,1-.25879-.39209,1.23556,1.23556,0,0,1-1.09863.55322,1.178,1.178,0,0,1-.86133-.30811,1.07468,1.07468,0,0,1-.31445-.80468,1.05772,1.05772,0,0,1,.42285-.90333,1.98263,1.98263,0,0,1,1.20117-.31494H61.662v-.27295a.71821.71821,0,0,0-.18848-.56005.85729.85729,0,0,0-.581-.168,3.23983,3.23983,0,0,0-.99414.19629l-.16114-.46924a3.7116,3.7116,0,0,1,1.27442-.252,1.33126,1.33126,0,0,1,.97266.31836,1.21845,1.21845,0,0,1,.32226.90674v1.687A.58287.58287,0,0,0,62.38271,22.10719Zm-.7207-.44482v-.84668h-.48242q-1.02246,0-1.02246.75586a.69268.69268,0,0,0,.16113.49707.62932.62932,0,0,0,.47559.168A.96106.96106,0,0,0,61.662,21.66237Z" style="fill:#2a2a29"/><path d="M66.37392,22.63551h-.55273l-.04981-.57421a1.401,1.401,0,0,1-.48242.50048,1.30922,1.30922,0,0,1-.665.15772.98026.98026,0,0,1-.75586-.29395,1.17578,1.17578,0,0,1-.27343-.833v-2.646h.64453v2.57617a.83446.83446,0,0,0,.13281.53516.53747.53747,0,0,0,.43359.15771,1.096,1.096,0,0,0,.92383-.63721V18.94655h.64453Z" style="fill:#2a2a29"/><path d="M69.56533,22.46755a1.41921,1.41921,0,0,1-.82617.252.97383.97383,0,0,1-.73145-.26953,1.07485,1.07485,0,0,1-.26269-.78028V19.44362h-.64356v-.49707H67.745v-.833l.64355-.07715v.91016h.875l-.06933.49707h-.80567v2.19775a.67958.67958,0,0,0,.10156.41651.40667.40667,0,0,0,.33985.12939,1.05743,1.05743,0,0,0,.49023-.147Z" style="fill:#2a2a29"/><path d="M70.96181,17.802a4.43485,4.43485,0,0,1,.41993,1.01513,5.5335,5.5335,0,0,1,0,2.73682,4.43513,4.43513,0,0,1-.41993,1.01514q-.249.42333-.71093,1.08154l-.40528-.28027a8.23434,8.23434,0,0,0,.57715-.96241,4.34655,4.34655,0,0,0,.33594-.96923,6.4777,6.4777,0,0,0,0-2.51319,4.20288,4.20288,0,0,0-.33594-.9624,9.127,9.127,0,0,0-.57715-.9624l.40528-.28028Q70.71377,17.37893,70.96181,17.802Z" style="fill:#2a2a29"/><path d="M19.38271,65.08913l-.36426-1.21094H17.19179l-.36425,1.21094h-.67188l1.54688-4.82325h.84033l1.54,4.82325Zm-2.03027-1.75h1.50537l-.749-2.52Z" style="fill:#2a2a29"/><path d="M22.65176,64.92116a1.41658,1.41658,0,0,1-.82569.25195.973.973,0,0,1-.73144-.26953,1.0727,1.0727,0,0,1-.2627-.78027V61.89723h-.644v-.49707h.644v-.833l.644-.07714v.91015h.875l-.07031.49707H21.476V64.095a.67622.67622,0,0,0,.10157.4165.40493.40493,0,0,0,.33935.12939,1.05578,1.05578,0,0,0,.49024-.147Z" style="fill:#2a2a29"/><path d="M25.80508,61.83424a2.13329,2.13329,0,0,1,.43066,1.40674,2.45731,2.45731,0,0,1-.1958,1.01172,1.53565,1.53565,0,0,1-.56738.67871,1.57814,1.57814,0,0,1-.88184.2417,1.4918,1.4918,0,0,1-1.21094-.51806,2.12105,2.12105,0,0,1-.43408-1.40674,2.44935,2.44935,0,0,1,.19629-1.01172,1.53553,1.53553,0,0,1,.56689-.6792,1.59487,1.59487,0,0,1,.88868-.24121A1.483,1.483,0,0,1,25.80508,61.83424Zm-2.16651,1.41407q0,1.407.95215,1.40674.95216,0,.95215-1.41407,0-1.407-.94531-1.40674Q23.63882,61.83424,23.63857,63.24831Z" style="fill:#2a2a29"/><path d="M31.73037,61.62087a1.18276,1.18276,0,0,1,.27344.82226v2.646h-.64453V62.534q0-.71337-.51758-.71387a.69831.69831,0,0,0-.46192.15772,2.20569,2.20569,0,0,0-.40625.49316v2.61817H29.33V62.534q0-.71337-.51856-.71387a.69737.69737,0,0,0-.46875.16114,2.21261,2.21261,0,0,0-.39892.48974v2.61817h-.644v-3.689h.55274l.05615.53906a1.2358,1.2358,0,0,1,1.064-.623.97425.97425,0,0,1,.585.1748.955.955,0,0,1,.3457.49024,1.7447,1.7447,0,0,1,.47949-.49366,1.11088,1.11088,0,0,1,.62012-.17138A.92883.92883,0,0,1,31.73037,61.62087Z" style="fill:#2a2a29"/><path d="M36.07021,63.4651H33.71865a1.44258,1.44258,0,0,0,.30762.896.89413.89413,0,0,0,.68652.28711,1.50453,1.50453,0,0,0,.49024-.07715,1.95583,1.95583,0,0,0,.46875-.24512l.28027.38526a2.0395,2.0395,0,0,1-1.28809.46191,1.495,1.495,0,0,1-1.20117-.5039A2.07019,2.07019,0,0,1,33.0331,63.283a2.62071,2.62071,0,0,1,.18555-1.01855,1.59768,1.59768,0,0,1,.53125-.69629,1.35046,1.35046,0,0,1,.81543-.25195,1.36691,1.36691,0,0,1,1.12695.48291,2.06319,2.06319,0,0,1,.39258,1.33691Q36.08486,63.29713,36.07021,63.4651Zm-.62207-.51806a1.36514,1.36514,0,0,0-.21777-.833.76325.76325,0,0,0-.65039-.28711q-.791,0-.86133,1.16211h1.72949Z" style="fill:#2a2a29"/><path d="M40.29189,59.45436a8.99066,8.99066,0,0,0-.57812.9624,4.25,4.25,0,0,0-.33594.96241,6.52867,6.52867,0,0,0,0,2.51318,4.39674,4.39674,0,0,0,.33594.96924,8.12061,8.12061,0,0,0,.57812.9624l-.40625.28027q-.46142-.65844-.71094-1.08154a4.47962,4.47962,0,0,1-.41992-1.01514,5.56389,5.56389,0,0,1,0-2.73681,4.47982,4.47982,0,0,1,.41992-1.01514q.249-.42334.71094-1.08154Z" style="fill:#2a2a29"/><path d="M44.00771,63.4651H41.65615a1.44258,1.44258,0,0,0,.30762.896.89413.89413,0,0,0,.68652.28711,1.50453,1.50453,0,0,0,.49024-.07715,1.95583,1.95583,0,0,0,.46875-.24512l.28027.38526a2.0395,2.0395,0,0,1-1.28809.46191,1.495,1.495,0,0,1-1.20117-.5039A2.07019,2.07019,0,0,1,40.9706,63.283a2.62071,2.62071,0,0,1,.18555-1.01855,1.59768,1.59768,0,0,1,.53125-.69629,1.35046,1.35046,0,0,1,.81543-.25195,1.36691,1.36691,0,0,1,1.12695.48291,2.06319,2.06319,0,0,1,.39258,1.33691Q44.02236,63.29713,44.00771,63.4651Zm-.62207-.51806a1.36514,1.36514,0,0,0-.21777-.833.76325.76325,0,0,0-.65039-.28711q-.791,0-.86133,1.16211h1.72949Zm-.30859-3.46485.28711.53907-1.48438.602-.19531-.34326Z" style="fill:#2a2a29"/><path d="M46.914,64.92116a1.41913,1.41913,0,0,1-.82617.25195.97375.97375,0,0,1-.73144-.26953,1.0748,1.0748,0,0,1-.2627-.78027V61.89723H44.4501v-.49707h.64355v-.833L45.7372,60.49v.91015h.875l-.06933.49707H45.7372V64.095a.67949.67949,0,0,0,.10157.4165.40661.40661,0,0,0,.33984.12939,1.05738,1.05738,0,0,0,.49024-.147Z" style="fill:#2a2a29"/><path d="M50.09072,64.56081a.47552.47552,0,0,0,.23145.16455l-.14747.44775a.98728.98728,0,0,1-.46191-.16113.74124.74124,0,0,1-.25879-.39209,1.23556,1.23556,0,0,1-1.09863.55322,1.17808,1.17808,0,0,1-.86133-.3081,1.0747,1.0747,0,0,1-.31445-.80469,1.05769,1.05769,0,0,1,.42285-.90332,1.98263,1.98263,0,0,1,1.20117-.31494H49.37v-.27295a.71824.71824,0,0,0-.18848-.56006.85731.85731,0,0,0-.581-.168,3.23983,3.23983,0,0,0-.99414.19629l-.16114-.46924a3.71153,3.71153,0,0,1,1.27442-.25195,1.33118,1.33118,0,0,1,.97265.31836,1.2184,1.2184,0,0,1,.32227.90674v1.687A.58292.58292,0,0,0,50.09072,64.56081ZM49.37,64.116V63.2693H48.8876q-1.02247,0-1.02247.75586a.69266.69266,0,0,0,.16114.49707.62931.62931,0,0,0,.47558.168A.96105.96105,0,0,0,49.37,64.116Z" style="fill:#2a2a29"/><path d="M53.2001,64.92116a1.41919,1.41919,0,0,1-.82618.25195.97375.97375,0,0,1-.73144-.26953,1.0748,1.0748,0,0,1-.2627-.78027V61.89723h-.64355v-.49707h.64355v-.833l.64356-.07714v.91015h.875l-.06934.49707h-.80566V64.095a.67956.67956,0,0,0,.10156.4165.40661.40661,0,0,0,.33984.12939,1.05735,1.05735,0,0,0,.49024-.147Z" style="fill:#2a2a29"/><path d="M58.40713,61.8235a2.36009,2.36009,0,0,1,.37109,1.41748,2.6996,2.6996,0,0,1-.1748,1.01172,1.50644,1.50644,0,0,1-.50391.67871,1.26486,1.26486,0,0,1-.76953.2417,1.219,1.219,0,0,1-.98047-.48974l-.0625.40576h-.56738V59.91628l.64355-.07715v2.023a1.23645,1.23645,0,0,1,1.043-.5459A1.17481,1.17481,0,0,1,58.40713,61.8235Zm-.56348,2.49219a1.90011,1.90011,0,0,0,.24219-1.07471,1.993,1.993,0,0,0-.22461-1.08154.72378.72378,0,0,0-.63672-.33252,1.04522,1.04522,0,0,0-.86133.57422V64.1653a1.14767,1.14767,0,0,0,.36133.36377.83459.83459,0,0,0,.45117.1333A.76937.76937,0,0,0,57.84365,64.31569Z" style="fill:#2a2a29"/><path d="M62.369,64.56081a.47552.47552,0,0,0,.23145.16455l-.14746.44775a.98728.98728,0,0,1-.46192-.16113.74124.74124,0,0,1-.25879-.39209,1.23556,1.23556,0,0,1-1.09863.55322,1.17808,1.17808,0,0,1-.86133-.3081,1.0747,1.0747,0,0,1-.31445-.80469,1.05769,1.05769,0,0,1,.42285-.90332,1.98263,1.98263,0,0,1,1.20117-.31494h.56641v-.27295a.71824.71824,0,0,0-.18848-.56006.85731.85731,0,0,0-.581-.168,3.23983,3.23983,0,0,0-.99414.19629l-.16114-.46924a3.71153,3.71153,0,0,1,1.27442-.25195,1.33118,1.33118,0,0,1,.97265.31836,1.2184,1.2184,0,0,1,.32227.90674v1.687A.58292.58292,0,0,0,62.369,64.56081Zm-.7207-.44483V63.2693h-.48242q-1.02246,0-1.02247.75586a.69266.69266,0,0,0,.16114.49707.62931.62931,0,0,0,.47558.168A.96105.96105,0,0,0,61.64834,64.116Z" style="fill:#2a2a29"/><path d="M65.22549,61.42116a2.0249,2.0249,0,0,1,.57421.31494l-.27246.40625a2.23452,2.23452,0,0,0-.48046-.23828,1.48176,1.48176,0,0,0-.4795-.07715.83908.83908,0,0,0-.49609.12988.4374.4374,0,0,0-.01074.70313,1.97946,1.97946,0,0,0,.61914.24512,2.21868,2.21868,0,0,1,.9209.41992.91674.91674,0,0,1,.30468.728.94409.94409,0,0,1-.42382.833,1.79728,1.79728,0,0,1-1.03223.28711,2.04324,2.04324,0,0,1-1.39356-.48291l.34278-.39209a1.67443,1.67443,0,0,0,1.03613.35694.98511.98511,0,0,0,.57813-.1504.47613.47613,0,0,0,.21289-.40966.53514.53514,0,0,0-.07715-.3042.62126.62126,0,0,0-.26563-.20313,3.69944,3.69944,0,0,0-.55273-.18554,1.88027,1.88027,0,0,1-.85059-.41309.88556.88556,0,0,1-.26269-.65772.86321.86321,0,0,1,.17187-.52148,1.10824,1.10824,0,0,1,.47559-.36426,1.72731,1.72731,0,0,1,.68262-.12939A2.05447,2.05447,0,0,1,65.22549,61.42116Z" style="fill:#2a2a29"/><path d="M67.5458,60.25563a4.43558,4.43558,0,0,1,.41992,1.01514,5.53315,5.53315,0,0,1,0,2.73681,4.43539,4.43539,0,0,1-.41992,1.01514q-.249.42334-.71094,1.08154l-.40527-.28027a8.23347,8.23347,0,0,0,.57715-.9624,4.34732,4.34732,0,0,0,.33593-.96924,6.47765,6.47765,0,0,0,0-2.51318,4.20327,4.20327,0,0,0-.33593-.96241,9.12905,9.12905,0,0,0-.57715-.9624l.40527-.28027Q67.29774,59.83253,67.5458,60.25563Z" style="fill:#2a2a29"/><path d="M23.3876,35.09059a1.31649,1.31649,0,0,1,.48974,1.11621,1.377,1.377,0,0,1-.51074,1.17578,2.20088,2.20088,0,0,1-1.35791.38477H21.3998v1.77148h-.665V34.71559h1.2666A2.23922,2.23922,0,0,1,23.3876,35.09059Zm-.52149,1.92871a.93919.93919,0,0,0,.30469-.80566.8809.8809,0,0,0-.30469-.749,1.425,1.425,0,0,0-.87158-.23047H21.3998v2.00879h.58057A1.48028,1.48028,0,0,0,22.86611,37.0193Z" style="fill:#eaa13a"/><path d="M27.15029,36.06715a1.15448,1.15448,0,0,1,.28369.8252v2.64648h-.644V36.98415a.80717.80717,0,0,0-.15039-.55371.57377.57377,0,0,0-.4375-.16016.82808.82808,0,0,0-.51123.168,1.76416,1.76416,0,0,0-.41992.47558v2.625h-.644v-5.166l.64405-.07031V36.3611a1.30614,1.30614,0,0,1,1.09179-.5957A1.02825,1.02825,0,0,1,27.15029,36.06715Z" style="fill:#eaa13a"/><path d="M31.32168,36.284a2.13466,2.13466,0,0,1,.43066,1.40723,2.451,2.451,0,0,1-.1958,1.01074,1.5384,1.5384,0,0,1-.56738.67969,1.578,1.578,0,0,1-.88184.24121,1.49439,1.49439,0,0,1-1.21094-.51758A2.12241,2.12241,0,0,1,28.4623,37.698a2.451,2.451,0,0,1,.19629-1.01171,1.53154,1.53154,0,0,1,.5669-.67872,1.59138,1.59138,0,0,1,.88867-.24218A1.48188,1.48188,0,0,1,31.32168,36.284ZM29.15517,37.698q0,1.40625.95215,1.40723.95215,0,.95215-1.41406,0-1.40772-.94531-1.40723Q29.15542,36.284,29.15517,37.698Z" style="fill:#eaa13a"/><path d="M34.67861,39.37087a1.41662,1.41662,0,0,1-.82568.252.97308.97308,0,0,1-.73145-.26953,1.072,1.072,0,0,1-.26269-.78028V36.34645h-.644v-.49707h.64405v-.833l.644-.07617v.90918h.875l-.07031.49707h-.80469v2.19824a.67986.67986,0,0,0,.10156.417.40626.40626,0,0,0,.33936.1289,1.06042,1.06042,0,0,0,.49023-.14648Z" style="fill:#eaa13a"/><path d="M37.83193,36.284a2.13466,2.13466,0,0,1,.43067,1.40723,2.45086,2.45086,0,0,1-.19581,1.01074,1.53833,1.53833,0,0,1-.56738.67969,1.57794,1.57794,0,0,1-.88183.24121,1.49436,1.49436,0,0,1-1.21094-.51758,2.12241,2.12241,0,0,1-.43408-1.40723,2.451,2.451,0,0,1,.19629-1.01171,1.53152,1.53152,0,0,1,.56689-.67872,1.5914,1.5914,0,0,1,.88867-.24218A1.48187,1.48187,0,0,1,37.83193,36.284ZM35.66543,37.698q0,1.40625.95215,1.40723.95214,0,.95214-1.41406,0-1.40772-.94531-1.40723Q35.66567,36.284,35.66543,37.698Z" style="fill:#eaa13a"/><path d="M41.85,36.06715a1.15453,1.15453,0,0,1,.28369.8252v2.64648h-.644V36.98415a.82144.82144,0,0,0-.147-.55371.56142.56142,0,0,0-.43408-.16016.8377.8377,0,0,0-.51806.168,1.72921,1.72921,0,0,0-.41993.48242v2.61816h-.644V35.84938h.55273l.05616.54688a1.46193,1.46193,0,0,1,.48681-.46289,1.2608,1.2608,0,0,1,.64014-.168A1.02827,1.02827,0,0,1,41.85,36.06715Z" style="fill:#eaa13a"/><path d="M59.994,43.51393,59.62978,42.303H57.80312l-.36426,1.21094H56.767l1.54687-4.82324h.84034l1.54,4.82324Zm-2.03027-1.75h1.50537l-.749-2.52Z" style="fill:#c92920"/><path d="M64.08877,40.24831a2.36687,2.36687,0,0,1,.37109,1.41748,2.709,2.709,0,0,1-.17529,1.01172,1.51351,1.51351,0,0,1-.50391.67871,1.26534,1.26534,0,0,1-.77.2417,1.21943,1.21943,0,0,1-.98-.48975l-.063.40576h-.56689V38.34108l.644-.07715v2.02295a1.23463,1.23463,0,0,1,1.043-.5459A1.17662,1.17662,0,0,1,64.08877,40.24831Zm-.56348,2.49218a1.90082,1.90082,0,0,0,.24121-1.0747,1.99867,1.99867,0,0,0-.22363-1.08155.7246.7246,0,0,0-.63721-.33252,1.04265,1.04265,0,0,0-.86084.57422V42.5901a1.14014,1.14014,0,0,0,.36035.36377.83987.83987,0,0,0,.45166.1333A.77077.77077,0,0,0,63.52529,42.74049Z" style="fill:#c92920"/><path d="M67.23916,39.846a2.04294,2.04294,0,0,1,.57373.31494l-.27295.40625a2.22915,2.22915,0,0,0-.47949-.23828,1.48827,1.48827,0,0,0-.4795-.07715.84335.84335,0,0,0-.49707.12989.43775.43775,0,0,0-.01025.70312,1.98433,1.98433,0,0,0,.61914.24512,2.2219,2.2219,0,0,1,.9209.41992.918.918,0,0,1,.3042.728.94369.94369,0,0,1-.42334.833,1.79788,1.79788,0,0,1-1.03272.28711,2.042,2.042,0,0,1-1.39306-.48291l.34326-.39209a1.67139,1.67139,0,0,0,1.03613.35693.98284.98284,0,0,0,.57715-.15039.47478.47478,0,0,0,.21387-.40967.539.539,0,0,0-.07715-.3042.62612.62612,0,0,0-.26611-.20312,3.6987,3.6987,0,0,0-.55274-.18555,1.8827,1.8827,0,0,1-.85058-.41309.88366.88366,0,0,1-.2627-.65771.86274.86274,0,0,1,.17139-.52149,1.10979,1.10979,0,0,1,.47607-.36425A1.72721,1.72721,0,0,1,66.56,39.741,2.0598,2.0598,0,0,1,67.23916,39.846Z" style="fill:#c92920"/><path d="M71.42129,40.25905a2.13325,2.13325,0,0,1,.43066,1.40674,2.45737,2.45737,0,0,1-.1958,1.01172,1.53569,1.53569,0,0,1-.56738.67871,1.57822,1.57822,0,0,1-.88184.2417,1.4918,1.4918,0,0,1-1.21094-.51807,2.121,2.121,0,0,1-.43408-1.40674,2.44942,2.44942,0,0,1,.19629-1.01172,1.53559,1.53559,0,0,1,.5669-.6792,1.59491,1.59491,0,0,1,.88867-.24121A1.483,1.483,0,0,1,71.42129,40.25905Zm-2.16651,1.41406q0,1.407.95215,1.40674.95216,0,.95215-1.41406,0-1.407-.94531-1.40674Q69.255,40.25905,69.25478,41.67311Z" style="fill:#c92920"/><path d="M74.88271,39.783l-.11865.62989a1.34055,1.34055,0,0,0-.32227-.042.68384.68384,0,0,0-.55273.252,1.86944,1.86944,0,0,0-.3291.78418v2.10693h-.644V39.825h.55273l.063.749a1.40218,1.40218,0,0,1,.39941-.623.88935.88935,0,0,1,.58789-.21A1.50531,1.50531,0,0,1,74.88271,39.783Z" style="fill:#c92920"/><path d="M78.34853,40.24489a2.59644,2.59644,0,0,1,.3291,1.4209,2.36639,2.36639,0,0,1-.37793,1.3999,1.23635,1.23635,0,0,1-1.07128.53223,1.19073,1.19073,0,0,1-.96631-.41993v1.75l-.64405.07715V39.825h.55274l.04931.49707a1.4139,1.4139,0,0,1,.48975-.43067,1.28427,1.28427,0,0,1,.60254-.15039A1.14913,1.14913,0,0,1,78.34853,40.24489Zm-.36425,1.4209q0-1.41359-.833-1.41407a.83275.83275,0,0,0-.49707.16114,1.5799,1.5799,0,0,0-.39209.41308v1.79883a.96831.96831,0,0,0,.35009.33252.94011.94011,0,0,0,.46192.11572Q77.98378,43.073,77.98428,41.66579Z" style="fill:#c92920"/><path d="M81.6376,43.346a1.414,1.414,0,0,1-.8252.252.9723.9723,0,0,1-.73145-.26954,1.07064,1.07064,0,0,1-.26269-.78027V40.322h-.64453V39.825h.64453v-.833l.64355-.07715V39.825h.875l-.07031.49707h-.80469v2.19775a.6795.6795,0,0,0,.10157.41651.40538.40538,0,0,0,.33984.12939,1.05743,1.05743,0,0,0,.49023-.147Z" style="fill:#c92920"/><path d="M82.94717,38.18a.4273.4273,0,0,1,.126.31494.41577.41577,0,0,1-.126.31152.45367.45367,0,0,1-.32911.12256.44359.44359,0,0,1-.32226-.12256.41574.41574,0,0,1-.126-.31152.42727.42727,0,0,1,.126-.31494.43634.43634,0,0,1,.32226-.126A.44612.44612,0,0,1,82.94717,38.18Zm0,1.645v3.689h-.64454V39.825Z" style="fill:#c92920"/><path d="M86.87,40.25905a2.13325,2.13325,0,0,1,.43066,1.40674,2.46539,2.46539,0,0,1-.19531,1.01172,1.53887,1.53887,0,0,1-.56738.67871,1.57822,1.57822,0,0,1-.88184.2417,1.49116,1.49116,0,0,1-1.21094-.51807,2.11855,2.11855,0,0,1-.43457-1.40674,2.44942,2.44942,0,0,1,.19629-1.01172,1.53662,1.53662,0,0,1,.56738-.6792A1.59381,1.59381,0,0,1,85.663,39.741,1.482,1.482,0,0,1,86.87,40.25905Zm-2.166,1.41406q0,1.407.95215,1.40674.95216,0,.95215-1.41406,0-1.407-.94531-1.40674Q84.70352,40.25905,84.704,41.67311Z" style="fill:#c92920"/><path d="M90.88857,40.04176a1.15894,1.15894,0,0,1,.28321.82618v2.646h-.64356V40.95876a.81917.81917,0,0,0-.14746-.55274.5566.5566,0,0,0-.43359-.16113.84222.84222,0,0,0-.51856.168,1.75405,1.75405,0,0,0-.41992.48291v2.61816h-.64356V39.825h.55274l.05566.5459a1.45572,1.45572,0,0,1,.48731-.46192,1.25415,1.25415,0,0,1,.63965-.168A1.03309,1.03309,0,0,1,90.88857,40.04176Z" style="fill:#c92920"/><path d="M42.25946,44.14443l-3.767-2.467-.21957,2.48247a1.18922,1.18922,0,0,1-.39266.06729h-.00045a.93151.93151,0,0,1-.71237-.2928,1.34353,1.34353,0,0,0-1.02581-.43842h-.0009a1.57435,1.57435,0,0,0-1.10065.42307,1.09132,1.09132,0,0,1-.76367.28215h-.00045a.93082.93082,0,0,1-.71237-.29281,1.34352,1.34352,0,0,0-1.02581-.43841H32.5373a1.57737,1.57737,0,0,0-1.10155.42306,1.106,1.106,0,0,1-.76322.28215h-.00045a.9298.9298,0,0,1-.71192-.2928A1.58507,1.58507,0,0,0,27.8319,43.867a1.091,1.091,0,0,1-.76322.28215h-.00045a.93049.93049,0,0,1-.71192-.2928,1.34353,1.34353,0,0,0-1.02581-.43842h-.00045a1.57733,1.57733,0,0,0-1.10155.42307,1.09024,1.09024,0,0,1-.76322.28215h-.00045a.93186.93186,0,0,1-.71282-.29281l-.35669.34339a1.34454,1.34454,0,0,0,1.02626.43841H23.422a1.57765,1.57765,0,0,0,1.102-.42306,1.08988,1.08988,0,0,1,.76277-.28216h.00046a.93151.93151,0,0,1,.71237.2928,1.34184,1.34184,0,0,0,1.02535.43842h.00045a1.57922,1.57922,0,0,0,1.102-.42306,1.13035,1.13035,0,0,1,1.4756.01064,1.34282,1.34282,0,0,0,1.0258.43842h.00045a1.57922,1.57922,0,0,0,1.102-.42306,1.08988,1.08988,0,0,1,.76277-.28216h.00045a.93153.93153,0,0,1,.71238.2928,1.34212,1.34212,0,0,0,1.0258.43841h.00045a1.58222,1.58222,0,0,0,1.1029-.42306,1.08578,1.08578,0,0,1,.76142-.28217h.0009a.94422.94422,0,0,1,.71238.2928,1.34352,1.34352,0,0,0,1.0258.43842H37.837a1.6455,1.6455,0,0,0,.3911-.04962l-.16691,1.88723Z" style="fill:#eaa13a"/><line x1="104.60708" y1="31.27058" x2="104.60685" y2="51.1107" style="fill:none;stroke:#2a2a29;stroke-miterlimit:10;stroke-width:0.699999988079071px"/><polygon points="102.015 33.237 104.607 32.135 107.199 33.237 104.607 27.092 102.015 33.237" style="fill:#2a2a29"/><polygon points="102.015 49.145 104.607 50.246 107.199 49.145 104.607 55.29 102.015 49.145" style="fill:#2a2a29"/><path d="M109.84951,43.14577c-.23828,0-.3291-.063-.3291-.18213a.84157.84157,0,0,1,.084-.28711l1.94043-4.64356.34278-.09082,2.248,5.20362Zm1.667-4.05518-1.4082,3.355h2.87207Z" style="fill:#2a2a29"/><path d="M117.96181,38.32253l-.14648.53222h-1.85547l-.22363,1.5752h1.61035l-.07031.53174h-1.61035l-.23047,1.65185h1.98144l-.07812.53223H114.7001l.67871-4.82324Z" style="fill:#2a2a29"/><circle cx="52.65487" cy="55.6243" r="2.95672" style="fill:#3f98cf"/><path d="M55.16735,28.09177l.61648,4.122-1.32966-.63779c-3.47617,9.75989-.82625,20.32438-.82625,20.32438a3.07674,3.07674,0,0,0-3.34819.90188c-2.463-10.13137,1.79571-19.45039,2.99585-21.79157l-1.35741-.65111Z" style="fill:#c92920"/><path d="M20.00283,84.58083l-.09814.686H18.12v1.35108h1.55371v.686H18.12v1.42139h1.91064v.69238h-2.835V84.58083ZM19.184,82.866l.34961.69971-1.603.581-.23095-.46191Z" style="fill:#565655"/><path d="M23.55556,85.907a1.17413,1.17413,0,0,1,.27637.82959v2.68115h-.896v-2.541a.71029.71029,0,0,0-.11573-.46191.42391.42391,0,0,0-.33935-.1333.66647.66647,0,0,0-.41651.14355,1.64757,1.64757,0,0,0-.36035.41651v2.57617h-.896V85.71462h.77685l.07031.48291a1.37655,1.37655,0,0,1,1.127-.5879A1.00472,1.00472,0,0,1,23.55556,85.907Z" style="fill:#565655"/><path d="M27.892,87.84255H25.56777a1.17676,1.17676,0,0,0,.28027.7705.8629.8629,0,0,0,.62989.23047,1.31634,1.31634,0,0,0,.46191-.08008,2.18244,2.18244,0,0,0,.46192-.248l.37109.51074a2.13351,2.13351,0,0,1-1.37207.49707,1.65134,1.65134,0,0,1-1.30567-.51856,2.05641,2.05641,0,0,1-.45849-1.41406,2.5316,2.5316,0,0,1,.19629-1.01855,1.61413,1.61413,0,0,1,.56689-.707,1.6884,1.6884,0,0,1,2.08594.23828,2.03556,2.03556,0,0,1,.42725,1.37549C27.913,87.52565,27.90566,87.64674,27.892,87.84255Zm-.86816-.62305q0-.97266-.7212-.97266a.61239.61239,0,0,0-.51416.24121,1.43819,1.43819,0,0,0-.2207.77393h1.45606Z" style="fill:#565655"/><path d="M30.91543,85.66579l-.15381.86816a1.3372,1.3372,0,0,0-.3291-.042.62961.62961,0,0,0-.51807.23437,1.80379,1.80379,0,0,0-.30078.71729v1.97412h-.896V85.71462h.77686l.084.728a1.33123,1.33123,0,0,1,.38526-.6123.87045.87045,0,0,1,.58105-.21338A1.3168,1.3168,0,0,1,30.91543,85.66579Z" style="fill:#565655"/><path d="M34.60439,85.9109a3.41806,3.41806,0,0,1-1.0708.126,1.22744,1.22744,0,0,1,.50733.38135.94732.94732,0,0,1,.16455.57031,1.1744,1.1744,0,0,1-.17823.644,1.20823,1.20823,0,0,1-.51806.44141,1.83569,1.83569,0,0,1-.79444.16113,1.56644,1.56644,0,0,1-.44091-.05566.31541.31541,0,0,0-.1543.27246q0,.25928.44824.25879h.5669a1.77667,1.77667,0,0,1,.71044.13281,1.09336,1.09336,0,0,1,.47266.375.92883.92883,0,0,1,.168.542.98593.98593,0,0,1-.47607.87207,2.51528,2.51528,0,0,1-1.37207.31153,3.096,3.096,0,0,1-1.01172-.13281.9713.9713,0,0,1-.52149-.38575,1.217,1.217,0,0,1-.15381-.64355h.80518a.55551.55551,0,0,0,.07324.30762.45239.45239,0,0,0,.26611.168,2.07384,2.07384,0,0,0,.55665.05664,1.49129,1.49129,0,0,0,.7207-.126.4015.4015,0,0,0,.21-.36426.378.378,0,0,0-.16064-.32519.79879.79879,0,0,0-.46924-.11622h-.56006a1.29571,1.29571,0,0,1-.791-.20214.61935.61935,0,0,1-.26562-.51172.69773.69773,0,0,1,.11523-.37793.986.986,0,0,1,.31836-.30762,1.22813,1.22813,0,0,1-.49316-.43115,1.14358,1.14358,0,0,1-.15772-.61231,1.25291,1.25291,0,0,1,.19629-.70019,1.29192,1.29192,0,0,1,.54248-.46533,1.83487,1.83487,0,0,1,.79444-.16456,3.30488,3.30488,0,0,0,.94824-.0874,3.95333,3.95333,0,0,0,.78076-.32568Zm-2.41113.50049a.74286.74286,0,0,0-.17188.51416.77039.77039,0,0,0,.1753.53223.7069.7069,0,0,0,.97314.00342.79983.79983,0,0,0,.168-.54248q0-.7002-.67236-.7002A.59943.59943,0,0,0,32.19326,86.41139Z" style="fill:#565655"/><path d="M35.99453,83.99635a.52729.52729,0,0,1,.15723.38819.51611.51611,0,0,1-.15723.38525.56168.56168,0,0,1-.40967.15381.55134.55134,0,0,1-.40234-.15381.51652.51652,0,0,1-.15772-.38525.52771.52771,0,0,1,.15772-.38819.54453.54453,0,0,1,.40234-.15771A.55459.55459,0,0,1,35.99453,83.99635Zm.04541,1.71827v3.70312h-.896V85.71462Z" style="fill:#565655"/><path d="M40.13467,87.84255H37.81045a1.17676,1.17676,0,0,0,.28027.7705.86286.86286,0,0,0,.62988.23047,1.31635,1.31635,0,0,0,.46192-.08008,2.18215,2.18215,0,0,0,.46191-.248l.3711.51074a2.13353,2.13353,0,0,1-1.37208.49707,1.6513,1.6513,0,0,1-1.30566-.51856,2.05641,2.05641,0,0,1-.4585-1.41406,2.5316,2.5316,0,0,1,.19629-1.01855,1.61415,1.61415,0,0,1,.5669-.707,1.68839,1.68839,0,0,1,2.08594.23828,2.03561,2.03561,0,0,1,.42724,1.37549C40.15566,87.52565,40.14834,87.64674,40.13467,87.84255Zm-.86817-.62305q0-.97266-.72119-.97266a.61238.61238,0,0,0-.51416.24121,1.43811,1.43811,0,0,0-.2207.77393h1.456Z" style="fill:#565655"/><path d="M45.92373,84.58083l-.1958.686H43.9706l-.1958,1.35108H45.308l-.09131.686H43.684l-.19629,1.42139H45.371l-.09814.69238H42.47256l.6792-4.83691Z" style="fill:#565655"/><path d="M49.52822,83.783a8.96324,8.96324,0,0,0-.57715.96241,4.17982,4.17982,0,0,0-.33594.9624,6.5061,6.5061,0,0,0,0,2.51367,4.31832,4.31832,0,0,0,.33594.96875,8.10156,8.10156,0,0,0,.57715.96289l-.40576.28028q-.46216-.65919-.71045-1.082a4.43051,4.43051,0,0,1-.41992-1.01464,5.53514,5.53514,0,0,1,0-2.73731,4.43513,4.43513,0,0,1,.41992-1.01514q.24829-.42333.71045-1.08154Z" style="fill:#565655"/><path d="M53.24551,87.79372H50.89345a1.43825,1.43825,0,0,0,.30811.89648.89237.89237,0,0,0,.686.28711,1.51248,1.51248,0,0,0,.48974-.07715,1.98544,1.98544,0,0,0,.46924-.24511l.27978.38476a2.03566,2.03566,0,0,1-1.28808.46191,1.4936,1.4936,0,0,1-1.2002-.5039,2.06529,2.06529,0,0,1-.43066-1.38623A2.62957,2.62957,0,0,1,50.393,86.593a1.59949,1.59949,0,0,1,.53222-.69629,1.34847,1.34847,0,0,1,.81543-.25195,1.36885,1.36885,0,0,1,1.127.48291,2.066,2.066,0,0,1,.39209,1.33692Q53.25967,87.62575,53.24551,87.79372Zm-.62305-.51807a1.36532,1.36532,0,0,0-.2168-.833.76516.76516,0,0,0-.65137-.28711q-.791,0-.86084,1.16211h1.729Z" style="fill:#565655"/><path d="M57.47353,84.5945l-1.54,4.82324h-.71386l-1.5542-4.82324h.71386L55.59023,88.697l1.21143-4.10254Z" style="fill:#565655"/><path d="M58.912,84.58424a4.45713,4.45713,0,0,1,.41992,1.01514,5.55047,5.55047,0,0,1,0,2.73731,4.45249,4.45249,0,0,1-.41992,1.01464q-.2483.42334-.71045,1.082l-.40625-.28028a8.11163,8.11163,0,0,0,.57764-.96289,4.31782,4.31782,0,0,0,.33593-.96875,6.50558,6.50558,0,0,0,0-2.51367,4.17934,4.17934,0,0,0-.33593-.9624,8.97576,8.97576,0,0,0-.57764-.96241l.40625-.28027Q58.66373,84.16116,58.912,84.58424Z" style="fill:#565655"/><g id="b6a7c071-7524-41f0-88f7-fc822442b63c" data-name="axes xy"><line x1="12.28465" y1="88.4729" x2="12.28465" y2="140.90408" style="fill:none;stroke:#6e6e6e;stroke-linecap:round;stroke-miterlimit:10;stroke-width:0.699999988079071px"/><polygon points="10.539 88.984 12.284 85.961 14.03 88.984 10.539 88.984" style="fill:#6e6e6e"/></g><path d="M5.52334,99.78981l-.147.53223h-1.855l-.22363,1.57519H4.90761l-.07031.53125H3.22744l-.231,1.65235h1.981l-.07666.53222H2.26162l.67871-4.82324Z" style="fill:#c92920"/><path d="M7.65517,104.96364a.77034.77034,0,0,1,.189.5498v1.76368h-.4292V105.575a.54636.54636,0,0,0-.09815-.36914.3722.3722,0,0,0-.28906-.10743.56338.56338,0,0,0-.34521.11231,1.14693,1.14693,0,0,0-.27979.32226v1.74415h-.4292v-2.458h.36866l.0371.36328a.98859.98859,0,0,1,.32422-.30762.8409.8409,0,0,1,.42676-.11133A.68549.68549,0,0,1,7.65517,104.96364Z" style="fill:#c92920"/><line x1="10.06952" y1="102.60453" x2="148.8037" y2="102.60453" style="fill:none;stroke:#c92920;stroke-linecap:round;stroke-miterlimit:10;stroke-width:0.75px"/><path d="M4.59658,128.70387l-.147.53223h-1.855L2.371,130.8113H3.98086l-.07032.53222H2.30068l-.231,1.65137h1.981l-.07666.53223H1.33486l.67871-4.82325Z" style="fill:#80a040"/><path d="M7.99941,133.88063a.78934.78934,0,0,1,.18164.54785v1.7627H7.75234V134.489q0-.47607-.34521-.47559a.46287.46287,0,0,0-.30811.1045,1.48214,1.48214,0,0,0-.27051.3291v1.74414h-.4292V134.489q0-.47607-.34472-.47559a.4656.4656,0,0,0-.3125.10645,1.484,1.484,0,0,0-.26612.32715v1.74414H5.04678v-2.458h.36865l.03711.35938a.8223.8223,0,0,1,.709-.415.6505.6505,0,0,1,.38965.11621.64209.64209,0,0,1,.231.32617,1.15353,1.15353,0,0,1,.31933-.32813.73821.73821,0,0,1,.4126-.11425A.61907.61907,0,0,1,7.99941,133.88063Z" style="fill:#80a040"/><line x1="10.04826" y1="131.51845" x2="148.8037" y2="131.51845" style="fill:none;stroke:#80a040;stroke-linecap:round;stroke-miterlimit:10;stroke-width:0.75px"/><path d="M90.00967,115.98024a1.31552,1.31552,0,0,1,.49023,1.11621,1.37824,1.37824,0,0,1-.51074,1.17578,2.20241,2.20241,0,0,1-1.3584.38477h-.6084v1.77148h-.665v-4.82324h1.2666A2.2367,2.2367,0,0,1,90.00967,115.98024Zm-.52149,1.92871a.93919.93919,0,0,0,.30469-.80566.88093.88093,0,0,0-.30469-.749,1.4234,1.4234,0,0,0-.87109-.23046h-.59473v2.00878h.58008A1.48028,1.48028,0,0,0,89.48818,117.909Z" style="fill:#eaa13a"/><path d="M93.77236,116.9568a1.1526,1.1526,0,0,1,.28418.8252v2.64648H93.412V117.8738a.80472.80472,0,0,0-.15039-.55372.57307.57307,0,0,0-.4375-.16015.82667.82667,0,0,0-.51074.168,1.75582,1.75582,0,0,0-.41993.47558v2.625h-.64453v-5.166l.64453-.07032v2.0586a1.30615,1.30615,0,0,1,1.0918-.5957A1.02643,1.02643,0,0,1,93.77236,116.9568Z" style="fill:#eaa13a"/><path d="M97.94424,117.1736a2.13466,2.13466,0,0,1,.43066,1.40723,2.44309,2.44309,0,0,1-.19629,1.01074,1.53523,1.53523,0,0,1-.56738.67969,1.578,1.578,0,0,1-.88184.24121,1.495,1.495,0,0,1-1.21094-.51758,2.12491,2.12491,0,0,1-.43359-1.40723,2.451,2.451,0,0,1,.19629-1.01172,1.53059,1.53059,0,0,1,.56641-.67871,1.59251,1.59251,0,0,1,.88867-.24218A1.48288,1.48288,0,0,1,97.94424,117.1736Zm-2.167,1.41406q0,1.40625.95215,1.40723.95216,0,.95215-1.41406,0-1.40772-.94531-1.40723Q95.77823,117.1736,95.77724,118.58766Z" style="fill:#eaa13a"/><path d="M101.30068,120.26051a1.414,1.414,0,0,1-.82519.252.97233.97233,0,0,1-.73145-.26953,1.0699,1.0699,0,0,1-.26269-.78028V117.2361h-.64454V116.739h.64454v-.833l.64355-.07617v.90918h.875l-.07031.49707h-.80469v2.19824a.68317.68317,0,0,0,.10156.417.40665.40665,0,0,0,.33985.12891,1.062,1.062,0,0,0,.49023-.14648Z" style="fill:#eaa13a"/><path d="M104.454,117.1736a2.13466,2.13466,0,0,1,.43067,1.40723,2.45885,2.45885,0,0,1-.19532,1.01074,1.54158,1.54158,0,0,1-.56738.67969,1.578,1.578,0,0,1-.88184.24121,1.49369,1.49369,0,0,1-1.21093-.51758,2.11992,2.11992,0,0,1-.43457-1.40723,2.451,2.451,0,0,1,.19629-1.01172,1.53253,1.53253,0,0,1,.56738-.67871,1.59027,1.59027,0,0,1,.88867-.24218A1.48087,1.48087,0,0,1,104.454,117.1736Zm-2.166,1.41406q0,1.40625.95214,1.40723.95216,0,.95215-1.41406,0-1.40772-.94531-1.40723Q102.2875,117.1736,102.288,118.58766Z" style="fill:#eaa13a"/><path d="M108.47256,116.9568a1.15647,1.15647,0,0,1,.2832.8252v2.64648h-.64356V117.8738a.8213.8213,0,0,0-.14746-.55372.5596.5596,0,0,0-.43359-.16015.83911.83911,0,0,0-.51855.168,1.73694,1.73694,0,0,0-.41993.48242v2.61816h-.64355V116.739h.55273l.05567.54687a1.459,1.459,0,0,1,.4873-.46289,1.2591,1.2591,0,0,1,.63965-.168A1.03012,1.03012,0,0,1,108.47256,116.9568Z" style="fill:#eaa13a"/><path d="M113.22842,114.79372a9.12539,9.12539,0,0,0-.57715.96191,4.22355,4.22355,0,0,0-.33594.96289,6.52619,6.52619,0,0,0,0,2.5127,4.351,4.351,0,0,0,.33594.96972,8.3165,8.3165,0,0,0,.57715.96289l-.40528.2793q-.46288-.65772-.71094-1.081a4.44978,4.44978,0,0,1-.41992-1.01465,5.53545,5.53545,0,0,1,0-2.73731,4.45821,4.45821,0,0,1,.41992-1.01562q.249-.42334.71094-1.08106Z" style="fill:#eaa13a"/><path d="M117.03017,115.25563v5.17285h-.56738l-.0625-.51074a1.35054,1.35054,0,0,1-.45508.4375,1.20541,1.20541,0,0,1-.60937.15723,1.18759,1.18759,0,0,1-1.02539-.51758,2.364,2.364,0,0,1-.36719-1.39356,2.70539,2.70539,0,0,1,.1748-1.00781,1.55612,1.55612,0,0,1,.50391-.68945,1.2396,1.2396,0,0,1,.76953-.249,1.32436,1.32436,0,0,1,.99414.45507v-1.93164Zm-1.0498,4.60938a1.5801,1.5801,0,0,0,.40527-.40918v-1.80664a1.40281,1.40281,0,0,0-.38867-.36036.8977.8977,0,0,0-.46484-.12207.74856.74856,0,0,0-.66211.35645,1.95725,1.95725,0,0,0-.23438,1.06445,2.04993,2.04993,0,0,0,.21778,1.06348.69062.69062,0,0,0,.62207.35058A.90984.90984,0,0,0,115.98037,119.865Z" style="fill:#eaa13a"/><path d="M119.00283,115.0945a.42842.42842,0,0,1,.126.31543.41655.41655,0,0,1-.126.31152.45377.45377,0,0,1-.3291.12207.44294.44294,0,0,1-.32129-.12207.41651.41651,0,0,1-.126-.31152.42838.42838,0,0,1,.126-.31543.43411.43411,0,0,1,.32129-.126A.44456.44456,0,0,1,119.00283,115.0945Zm0,1.64453v3.68945h-.64355V116.739Z" style="fill:#eaa13a"/><path d="M122.30068,116.697l-.11914.63086a1.303,1.303,0,0,0-.32129-.042.68578.68578,0,0,0-.55371.252,1.88365,1.88365,0,0,0-.3291.7832v2.10742h-.64356V116.739h.55274l.06348.749a1.40517,1.40517,0,0,1,.39843-.623.89278.89278,0,0,1,.58789-.21A1.5338,1.5338,0,0,1,122.30068,116.697Z" style="fill:#eaa13a"/><path d="M125.59658,118.80446H123.245a1.44414,1.44414,0,0,0,.30761.89648.89338.89338,0,0,0,.68653.28614,1.51743,1.51743,0,0,0,.49023-.07618,2.00957,2.00957,0,0,0,.46875-.24511l.28028.38476a2.04228,2.04228,0,0,1-1.28809.46192,1.495,1.495,0,0,1-1.20117-.50391,2.06966,2.06966,0,0,1-.42969-1.38574,2.61713,2.61713,0,0,1,.18555-1.01856,1.60059,1.60059,0,0,1,.53125-.69726,1.35044,1.35044,0,0,1,.81543-.25195,1.36584,1.36584,0,0,1,1.12695.48339,2.06322,2.06322,0,0,1,.39258,1.33692C125.61123,118.58278,125.60635,118.69215,125.59658,118.80446Zm-.62207-.51758a1.36414,1.36414,0,0,0-.21777-.833.76329.76329,0,0,0-.65039-.28711q-.791,0-.86133,1.16211h1.72949Z" style="fill:#eaa13a"/><path d="M128.58681,116.74977a1.69783,1.69783,0,0,1,.52442.30469l-.30762.40625a1.58879,1.58879,0,0,0-.38183-.207,1.21075,1.21075,0,0,0-.40918-.06641.79887.79887,0,0,0-.69629.35742,1.8451,1.8451,0,0,0-.249,1.05664,1.74738,1.74738,0,0,0,.24512,1.03223.81721.81721,0,0,0,.7002.333,1.16,1.16,0,0,0,.39843-.06641,2.013,2.013,0,0,0,.40625-.21386l.29395.41992a1.75311,1.75311,0,0,1-1.127.40625,1.4705,1.4705,0,0,1-1.17969-.50391,2.08289,2.08289,0,0,1-.42969-1.39355,2.50907,2.50907,0,0,1,.19531-1.02832,1.59164,1.59164,0,0,1,.55664-.68653,1.49074,1.49074,0,0,1,.85743-.24511A1.84764,1.84764,0,0,1,128.58681,116.74977Z" style="fill:#eaa13a"/><path d="M131.84853,120.26051a1.41914,1.41914,0,0,1-.82617.252.97379.97379,0,0,1-.73144-.26953,1.074,1.074,0,0,1-.2627-.78028V117.2361h-.64355V116.739h.64355v-.833l.64356-.07617v.90918h.875l-.06934.49707h-.80566v2.19824a.6831.6831,0,0,0,.10156.417.40789.40789,0,0,0,.33984.12891,1.06207,1.06207,0,0,0,.49024-.14648Z" style="fill:#eaa13a"/><path d="M133.15713,115.0945a.42842.42842,0,0,1,.126.31543.41654.41654,0,0,1-.126.31152.453.453,0,0,1-.32813.12207.44525.44525,0,0,1-.32226-.12207.41651.41651,0,0,1-.126-.31152.42838.42838,0,0,1,.126-.31543.43634.43634,0,0,1,.32226-.126A.44383.44383,0,0,1,133.15713,115.0945Zm0,1.64453v3.68945h-.64356V116.739Z" style="fill:#eaa13a"/><path d="M137.081,117.1736a2.13466,2.13466,0,0,1,.43067,1.40723,2.44309,2.44309,0,0,1-.19629,1.01074,1.54158,1.54158,0,0,1-.56738.67969,1.578,1.578,0,0,1-.88184.24121,1.495,1.495,0,0,1-1.21094-.51758,2.12491,2.12491,0,0,1-.43359-1.40723,2.45112,2.45112,0,0,1,.19531-1.01172,1.53882,1.53882,0,0,1,.56739-.67871,1.59251,1.59251,0,0,1,.88867-.24218A1.48285,1.48285,0,0,1,137.081,117.1736Zm-2.167,1.41406q0,1.40625.95215,1.40723.95216,0,.95215-1.41406,0-1.40772-.94531-1.40723Q134.91348,117.1736,134.914,118.58766Z" style="fill:#eaa13a"/><path d="M141.09853,116.9568a1.15211,1.15211,0,0,1,.28321.8252v2.64648h-.64356V117.8738a.816.816,0,0,0-.14746-.55372.55963.55963,0,0,0-.43359-.16015.83916.83916,0,0,0-.51856.168,1.75291,1.75291,0,0,0-.41992.48242v2.61816h-.64355V116.739h.55273l.05664.54687a1.447,1.447,0,0,1,.48633-.46289,1.26268,1.26268,0,0,1,.64062-.168A1.02786,1.02786,0,0,1,141.09853,116.9568Z" style="fill:#eaa13a"/><path d="M90.17763,123.739v5.18066l-.64355-.07714v-1.9043a1.30811,1.30811,0,0,1-.45215.42383,1.20218,1.20218,0,0,1-.59765.15039,1.18814,1.18814,0,0,1-1.02637-.51758,2.37111,2.37111,0,0,1-.36719-1.39356,2.72485,2.72485,0,0,1,.17481-1.00781,1.57087,1.57087,0,0,1,.5039-.68945,1.24241,1.24241,0,0,1,.77051-.249,1.36175,1.36175,0,0,1,1.03613.49707l.04883-.41309Zm-1.0498,3.126a1.58234,1.58234,0,0,0,.40625-.40918v-1.80664a1.4166,1.4166,0,0,0-.38867-.36036.90128.90128,0,0,0-.46582-.12207.74809.74809,0,0,0-.66114.35645,1.95726,1.95726,0,0,0-.23437,1.06445,2.06094,2.06094,0,0,0,.2168,1.06348.69214.69214,0,0,0,.623.35058A.90425.90425,0,0,0,89.12783,126.865Z" style="fill:#eaa13a"/><path d="M94.25185,127.42848h-.55273l-.04883-.57422a1.42113,1.42113,0,0,1-.4834.501,1.31416,1.31416,0,0,1-.665.15723.97854.97854,0,0,1-.75586-.29395,1.18106,1.18106,0,0,1-.27343-.833V123.739h.64453v2.57617a.83853.83853,0,0,0,.13281.53613.54025.54025,0,0,0,.43359.15723,1.09668,1.09668,0,0,0,.92481-.63672V123.739h.64355Z" style="fill:#eaa13a"/><path d="M98.35342,125.80446H96.00185a1.43824,1.43824,0,0,0,.30762.89648.89336.89336,0,0,0,.68652.28614,1.51145,1.51145,0,0,0,.48926-.07618,2.0341,2.0341,0,0,0,.46973-.24511l.2793.38476a2.04031,2.04031,0,0,1-1.28809.46192,1.49427,1.49427,0,0,1-1.2002-.50391,2.06479,2.06479,0,0,1-.43066-1.38574,2.63521,2.63521,0,0,1,.18555-1.01856,1.60976,1.60976,0,0,1,.53222-.69726,1.35046,1.35046,0,0,1,.81543-.25195,1.36714,1.36714,0,0,1,1.127.48339,2.06328,2.06328,0,0,1,.39257,1.33692C98.36806,125.58278,98.36318,125.69215,98.35342,125.80446Zm-.62305-.51758a1.36433,1.36433,0,0,0-.2168-.833.764.764,0,0,0-.65137-.28711q-.791,0-.86035,1.16211h1.72852Z" style="fill:#eaa13a"/><path d="M99.56826,127.2986a.82339.82339,0,0,1-.207-.59766v-4.44531l.64453-.07715v4.50782a.37865.37865,0,0,0,.05273.2246.20834.20834,0,0,0,.17774.06934.632.632,0,0,0,.23828-.042l.168.44824a1.05,1.05,0,0,1-.51074.126A.74624.74624,0,0,1,99.56826,127.2986Z" style="fill:#eaa13a"/><path d="M103.3583,123.74977a1.69089,1.69089,0,0,1,.52539.30469l-.30762.40625a1.58879,1.58879,0,0,0-.38183-.207,1.21483,1.21483,0,0,0-.40918-.06641.8017.8017,0,0,0-.69727.35742,1.85345,1.85345,0,0,0-.248,1.05664,1.74746,1.74746,0,0,0,.24512,1.03223.81722.81722,0,0,0,.7002.333,1.16,1.16,0,0,0,.39843-.06641,2.03883,2.03883,0,0,0,.40625-.21386l.29395.41992a1.75309,1.75309,0,0,1-1.127.40625,1.4705,1.4705,0,0,1-1.17969-.50391,2.078,2.078,0,0,1-.43067-1.39355,2.50887,2.50887,0,0,1,.19629-1.02832,1.59164,1.59164,0,0,1,.55664-.68653,1.49074,1.49074,0,0,1,.85743-.24511A1.83751,1.83751,0,0,1,103.3583,123.74977Z" style="fill:#eaa13a"/><path d="M107.21181,124.1736a2.13466,2.13466,0,0,1,.43067,1.40723,2.459,2.459,0,0,1-.19531,1.01074,1.5416,1.5416,0,0,1-.56739.67969,1.57794,1.57794,0,0,1-.88183.24121,1.4937,1.4937,0,0,1-1.21094-.51758,2.11992,2.11992,0,0,1-.43457-1.40723,2.451,2.451,0,0,1,.19629-1.01172,1.53253,1.53253,0,0,1,.56738-.67871,1.59027,1.59027,0,0,1,.88867-.24218A1.48087,1.48087,0,0,1,107.21181,124.1736Zm-2.166,1.41406q0,1.40625.95215,1.40723.95214,0,.95215-1.41406,0-1.40772-.94532-1.40723Q105.0453,124.1736,105.0458,125.58766Z" style="fill:#eaa13a"/><path d="M111.23037,123.9568a1.15642,1.15642,0,0,1,.2832.8252v2.64648H110.87V124.8738a.82135.82135,0,0,0-.14746-.55372.55964.55964,0,0,0-.4336-.16015.83911.83911,0,0,0-.51855.168,1.73692,1.73692,0,0,0-.41992.48242v2.61816h-.64356V123.739h.55274l.05566.54687a1.459,1.459,0,0,1,.4873-.46289,1.2591,1.2591,0,0,1,.63965-.168A1.0301,1.0301,0,0,1,111.23037,123.9568Z" style="fill:#eaa13a"/><path d="M115.66494,123.739v5.18066l-.64453-.07714v-1.9043a1.297,1.297,0,0,1-.45117.42383,1.20328,1.20328,0,0,1-.59864.15039,1.18762,1.18762,0,0,1-1.02539-.51758,2.364,2.364,0,0,1-.36718-1.39356,2.70518,2.70518,0,0,1,.1748-1.00781,1.556,1.556,0,0,1,.50391-.68945,1.23956,1.23956,0,0,1,.76953-.249,1.36026,1.36026,0,0,1,1.03613.49707l.04883-.41309Zm-1.04981,3.126a1.58012,1.58012,0,0,0,.40528-.40918v-1.80664a1.40309,1.40309,0,0,0-.38867-.36036.89776.89776,0,0,0-.46485-.12207.74857.74857,0,0,0-.66211.35645,1.95726,1.95726,0,0,0-.23437,1.06445,2.04994,2.04994,0,0,0,.21777,1.06348.69062.69062,0,0,0,.62207.35058A.90981.90981,0,0,0,114.61513,126.865Z" style="fill:#eaa13a"/><path d="M119.73818,127.42848h-.55273l-.04883-.57422a1.41918,1.41918,0,0,1-.48242.501,1.32306,1.32306,0,0,1-.666.15723.98139.98139,0,0,1-.75586-.29395,1.18074,1.18074,0,0,1-.27246-.833V123.739h.64356v2.57617a.838.838,0,0,0,.13378.53613.5367.5367,0,0,0,.43262.15723,1.09418,1.09418,0,0,0,.92383-.63672V123.739h.64453Z" style="fill:#eaa13a"/><path d="M123.83974,125.80446h-2.35156a1.44408,1.44408,0,0,0,.30762.89648.89336.89336,0,0,0,.68652.28614,1.51754,1.51754,0,0,0,.49024-.07618,2.01,2.01,0,0,0,.46875-.24511l.28027.38476a2.04228,2.04228,0,0,1-1.28809.46192,1.495,1.495,0,0,1-1.20117-.50391,2.06966,2.06966,0,0,1-.42969-1.38574,2.61732,2.61732,0,0,1,.18555-1.01856,1.60066,1.60066,0,0,1,.53125-.69726,1.35046,1.35046,0,0,1,.81543-.25195,1.36583,1.36583,0,0,1,1.12695.48339,2.06322,2.06322,0,0,1,.39258,1.33692C123.85439,125.58278,123.84951,125.69215,123.83974,125.80446Zm-.62207-.51758a1.36414,1.36414,0,0,0-.21777-.833.76328.76328,0,0,0-.65039-.28711q-.791,0-.86133,1.16211h1.72949Z" style="fill:#eaa13a"/><path d="M125.61513,122.5945a4.45776,4.45776,0,0,1,.41993,1.01562,5.53545,5.53545,0,0,1,0,2.73731,4.44933,4.44933,0,0,1-.41993,1.01465q-.249.42333-.71093,1.081l-.40528-.2793a8.3165,8.3165,0,0,0,.57715-.96289,4.351,4.351,0,0,0,.33594-.96972,6.47519,6.47519,0,0,0,0-2.5127,4.22355,4.22355,0,0,0-.33594-.96289,9.12539,9.12539,0,0,0-.57715-.96191l.40528-.28028Q125.36709,122.17116,125.61513,122.5945Z" style="fill:#eaa13a"/><path d="M105.64726,105.63576l-4.3112-1.30007.492,2.44312a1.18944,1.18944,0,0,1-.35756.17567l-.00044.00012a.93144.93144,0,0,1-.76611-.07922,1.34354,1.34354,0,0,0-1.10794-.13017l-.00087.00025a1.57438,1.57438,0,0,0-.93592.71727,1.09129,1.09129,0,0,1-.65259.48675l-.00044.00012a.93082.93082,0,0,1-.76611-.07922,1.34351,1.34351,0,0,0-1.10794-.13017l-.00044.00012a1.57733,1.57733,0,0,0-.93678.71752,1.106,1.106,0,0,1-.65216.48662l-.00044.00013a.92981.92981,0,0,1-.76568-.07935,1.58508,1.58508,0,0,0-2.04559.5876,1.091,1.091,0,0,1-.65216.48662l-.00044.00013a.93049.93049,0,0,1-.76567-.07935,1.34353,1.34353,0,0,0-1.108-.13017l-.00043.00012a1.57731,1.57731,0,0,0-.93678.71752,1.09018,1.09018,0,0,1-.65217.48662l-.00043.00013a.93184.93184,0,0,1-.76655-.0791l-.24492.43029a1.34451,1.34451,0,0,0,1.10838.13005l.00043-.00012a1.57762,1.57762,0,0,0,.93722-.71765,1.08984,1.08984,0,0,1,.65173-.48649l.00043-.00013a.93152.93152,0,0,1,.76611.07922,1.34184,1.34184,0,0,0,1.10752.1303l.00043-.00012a1.57921,1.57921,0,0,0,.93721-.71765,1.13033,1.13033,0,0,1,1.41828-.4074,1.34282,1.34282,0,0,0,1.108.13017l.00043-.00012a1.57921,1.57921,0,0,0,.93721-.71765,1.08987,1.08987,0,0,1,.65174-.48649l.00043-.00013a.93152.93152,0,0,1,.76611.07922,1.34215,1.34215,0,0,0,1.108.13018l.00043-.00013a1.58225,1.58225,0,0,0,.93808-.71789,1.08564,1.08564,0,0,1,.65043-.48612l.00087-.00025a.94416.94416,0,0,1,.76611.07922,1.34356,1.34356,0,0,0,1.108.13017l.00043-.00012a1.6458,1.6458,0,0,0,.36107-.15828l.374,1.85731Z" style="fill:#eaa13a"/><line x1="15.92729" y1="107.16473" x2="15.92706" y2="127.00485" style="fill:none;stroke:#2a2a29;stroke-miterlimit:10;stroke-width:0.699999988079071px"/><polygon points="13.335 109.131 15.927 108.029 18.519 109.131 15.927 102.986 13.335 109.131" style="fill:#2a2a29"/><polygon points="13.335 125.039 15.927 126.14 18.519 125.039 15.927 131.184 13.335 125.039" style="fill:#2a2a29"/><path d="M21.16982,119.03981c-.23828,0-.3291-.06348-.3291-.18262a.83082.83082,0,0,1,.084-.28711l1.93995-4.64355.34326-.09082,2.248,5.2041Zm1.667-4.05566-1.4082,3.35547h2.87158Z" style="fill:#2a2a29"/><path d="M29.28213,114.21657l-.14649.53223H27.28017l-.22363,1.57519h1.61035l-.07031.53125H26.98623l-.231,1.65234H28.7372l-.07812.53223H26.02041l.67871-4.82324Z" style="fill:#2a2a29"/><path d="M52.40127,112.2068l-.07617.53223H50.456v1.57519H52.08v.53125H50.456v1.65235h2.002v.53223h-2.667V112.2068Zm-.72071-1.55371.28028.53906-1.51172.55274-.168-.34277Z" style="fill:#80a040"/><path d="M57.86123,113.5613a1.18442,1.18442,0,0,1,.27344.82226v2.64649h-.64454v-2.55567q0-.71337-.51757-.71387a.69609.69609,0,0,0-.46192.15821,2.19438,2.19438,0,0,0-.40625.49316v2.61817h-.64355v-2.55567q0-.71337-.51856-.71387a.69732.69732,0,0,0-.46875.16114,2.21927,2.21927,0,0,0-.39941.49023v2.61817h-.64356v-3.68946h.55274l.05664.53906a1.23492,1.23492,0,0,1,1.06348-.623.97425.97425,0,0,1,.585.1748.957.957,0,0,1,.3457.49024,1.74246,1.74246,0,0,1,.47949-.49317,1.11107,1.11107,0,0,1,.62012-.17187A.92883.92883,0,0,1,57.86123,113.5613Z" style="fill:#80a040"/><path d="M60.07314,111.69606a.42619.42619,0,0,1,.126.31445.415.415,0,0,1-.126.31153.44964.44964,0,0,1-.32812.123.442.442,0,0,1-.32227-.123.41505.41505,0,0,1-.126-.31153.42622.42622,0,0,1,.126-.31445.43642.43642,0,0,1,.32227-.126A.44385.44385,0,0,1,60.07314,111.69606Zm0,1.64453v3.68946h-.64355v-3.68946Z" style="fill:#80a040"/><path d="M63.08291,113.36208a2.0232,2.0232,0,0,1,.57422.31445l-.27246.40625a2.2578,2.2578,0,0,0-.48047-.23828,1.49512,1.49512,0,0,0-.4795-.07715.84264.84264,0,0,0-.49609.12988.4374.4374,0,0,0-.01074.70313,1.97936,1.97936,0,0,0,.61914.24511,2.23124,2.23124,0,0,1,.9209.41993.91709.91709,0,0,1,.30469.72851.94411.94411,0,0,1-.42383.833,1.79728,1.79728,0,0,1-1.03223.28711,2.04114,2.04114,0,0,1-1.39355-.4834l.34277-.3916a1.67691,1.67691,0,0,0,1.03613.35644.98509.98509,0,0,0,.57813-.15039.47472.47472,0,0,0,.21289-.40918.53791.53791,0,0,0-.07715-.30468.62126.62126,0,0,0-.26563-.20313,3.75475,3.75475,0,0,0-.55273-.18554,1.88027,1.88027,0,0,1-.85059-.41309.8837.8837,0,0,1-.26269-.65723.86327.86327,0,0,1,.17187-.52148,1.10079,1.10079,0,0,1,.47559-.36426,1.71877,1.71877,0,0,1,.68262-.12988A2.04153,2.04153,0,0,1,63.08291,113.36208Z" style="fill:#80a040"/><path d="M66.28213,113.36208a2.02333,2.02333,0,0,1,.57422.31445l-.27247.40625a2.25751,2.25751,0,0,0-.48046-.23828,1.49512,1.49512,0,0,0-.4795-.07715.84264.84264,0,0,0-.49609.12988.4374.4374,0,0,0-.01074.70313,1.97936,1.97936,0,0,0,.61914.24511,2.23124,2.23124,0,0,1,.9209.41993.91709.91709,0,0,1,.30468.72851.9441.9441,0,0,1-.42382.833,1.79728,1.79728,0,0,1-1.03223.28711,2.04119,2.04119,0,0,1-1.39356-.4834l.34278-.3916a1.67689,1.67689,0,0,0,1.03613.35644.98509.98509,0,0,0,.57813-.15039.47472.47472,0,0,0,.21289-.40918.53791.53791,0,0,0-.07715-.30468.62126.62126,0,0,0-.26563-.20313,3.75475,3.75475,0,0,0-.55273-.18554,1.88027,1.88027,0,0,1-.85059-.41309.8837.8837,0,0,1-.26269-.65723.86321.86321,0,0,1,.17187-.52148,1.10079,1.10079,0,0,1,.47559-.36426,1.71877,1.71877,0,0,1,.68262-.12988A2.04153,2.04153,0,0,1,66.28213,113.36208Z" style="fill:#80a040"/><path d="M68.51553,111.69606a.42622.42622,0,0,1,.126.31445.41505.41505,0,0,1-.126.31153.44966.44966,0,0,1-.32813.123.442.442,0,0,1-.32227-.123.41505.41505,0,0,1-.126-.31153.42622.42622,0,0,1,.126-.31445.43642.43642,0,0,1,.32227-.126A.44387.44387,0,0,1,68.51553,111.69606Zm0,1.64453v3.68946H67.872v-3.68946Z" style="fill:#80a040"/><path d="M72.43935,113.77516a2.13189,2.13189,0,0,1,.43067,1.40625,2.44777,2.44777,0,0,1-.19629,1.01172,1.53344,1.53344,0,0,1-.56738.67871,1.57846,1.57846,0,0,1-.88184.24219,1.49276,1.49276,0,0,1-1.21094-.51856,2.12212,2.12212,0,0,1-.43359-1.40625,2.44783,2.44783,0,0,1,.19531-1.01171,1.54147,1.54147,0,0,1,.56738-.67969,1.6,1.6,0,0,1,.88868-.24121A1.48286,1.48286,0,0,1,72.43935,113.77516Zm-2.167,1.41406q0,1.40625.95215,1.40625t.95215-1.41406q0-1.40625-.94531-1.40625Q70.27187,113.77516,70.27236,115.18922Z" style="fill:#80a040"/><path d="M76.45693,113.55739a1.15621,1.15621,0,0,1,.2832.82617v2.64649h-.64355v-2.55567a.81476.81476,0,0,0-.14746-.55273.55657.55657,0,0,0-.43359-.16114.84528.84528,0,0,0-.51856.168,1.77307,1.77307,0,0,0-.41992.4834v2.61817h-.64356v-3.68946h.55274l.05664.5459a1.45334,1.45334,0,0,1,.48633-.46191,1.26256,1.26256,0,0,1,.64062-.168A1.03082,1.03082,0,0,1,76.45693,113.55739Z" style="fill:#80a040"/><path d="M46.081,120.36208a2.02307,2.02307,0,0,1,.57422.31445l-.27246.40625a2.25734,2.25734,0,0,0-.48047-.23828,1.495,1.495,0,0,0-.47949-.07715.84264.84264,0,0,0-.49609.12988.4374.4374,0,0,0-.01074.70313,1.97926,1.97926,0,0,0,.61914.24511,2.23113,2.23113,0,0,1,.92089.41993.91706.91706,0,0,1,.30469.72851.94408.94408,0,0,1-.42383.833,1.79723,1.79723,0,0,1-1.03222.28711,2.04117,2.04117,0,0,1-1.39356-.4834l.34278-.3916a1.67689,1.67689,0,0,0,1.03613.35644.98506.98506,0,0,0,.57812-.15039.4747.4747,0,0,0,.21289-.40918.538.538,0,0,0-.07714-.30468.62126.62126,0,0,0-.26563-.20313,3.75559,3.75559,0,0,0-.55273-.18554,1.88027,1.88027,0,0,1-.85059-.41309.8837.8837,0,0,1-.26269-.65723.86321.86321,0,0,1,.17187-.52148,1.10079,1.10079,0,0,1,.47559-.36426,1.71875,1.71875,0,0,1,.68261-.12988A2.04144,2.04144,0,0,1,46.081,120.36208Z" style="fill:#80a040"/><path d="M50.39931,120.76051a2.58789,2.58789,0,0,1,.32911,1.4209,2.367,2.367,0,0,1-.37793,1.40039,1.23579,1.23579,0,0,1-1.07032.53223,1.19255,1.19255,0,0,1-.96679-.41992v1.75l-.64356.07715v-5.18067h.55274l.04882.49707a1.41973,1.41973,0,0,1,.49024-.43066,1.29,1.29,0,0,1,.60254-.15039A1.14636,1.14636,0,0,1,50.39931,120.76051Zm-.36328,1.4209q0-1.41357-.833-1.41406a.83067.83067,0,0,0-.49708.16113,1.5897,1.5897,0,0,0-.39257.41309v1.79883a.96717.96717,0,0,0,.35058.333.93975.93975,0,0,0,.46192.11524Q50.03554,123.58864,50.036,122.18141Z" style="fill:#80a040"/><path d="M54.42178,120.77516a2.13194,2.13194,0,0,1,.43066,1.40625,2.44777,2.44777,0,0,1-.19629,1.01172,1.53344,1.53344,0,0,1-.56738.67871,1.57846,1.57846,0,0,1-.88184.24219,1.49277,1.49277,0,0,1-1.21094-.51856,2.12212,2.12212,0,0,1-.43359-1.40625,2.44783,2.44783,0,0,1,.19531-1.01171,1.54149,1.54149,0,0,1,.56739-.67969,1.6,1.6,0,0,1,.88867-.24121A1.48288,1.48288,0,0,1,54.42178,120.77516Zm-2.167,1.41406q0,1.40625.95215,1.40625t.95215-1.41406q0-1.40625-.94531-1.40625Q52.2543,120.77516,52.25478,122.18922Z" style="fill:#80a040"/><path d="M58.43935,120.55739a1.15617,1.15617,0,0,1,.28321.82617v2.64649H58.079v-2.55567a.81476.81476,0,0,0-.14746-.55273.55657.55657,0,0,0-.43359-.16114.8453.8453,0,0,0-.51856.168,1.77307,1.77307,0,0,0-.41992.4834v2.61817h-.64355v-3.68946h.55273l.05664.5459a1.45334,1.45334,0,0,1,.48633-.46191,1.26259,1.26259,0,0,1,.64062-.168A1.03082,1.03082,0,0,1,58.43935,120.55739Z" style="fill:#80a040"/><path d="M61.88076,123.86208a1.41916,1.41916,0,0,1-.82617.25195.97379.97379,0,0,1-.73145-.26953,1.07563,1.07563,0,0,1-.26269-.78028v-2.22656h-.64356v-.49707h.64356v-.833l.64355-.07714v.91015h.875l-.06933.49707H60.704v2.19824a.67792.67792,0,0,0,.10156.416.40541.40541,0,0,0,.33985.12988,1.05291,1.05291,0,0,0,.49023-.14746Z" style="fill:#80a040"/><path d="M65.05752,123.50172a.47165.47165,0,0,0,.23144.16407l-.14746.44824a.98728.98728,0,0,1-.46191-.16113.74268.74268,0,0,1-.25879-.39258,1.23594,1.23594,0,0,1-1.09863.55371,1.17632,1.17632,0,0,1-.86133-.30859,1.07471,1.07471,0,0,1-.31446-.80469,1.0583,1.0583,0,0,1,.42286-.90332,1.98265,1.98265,0,0,1,1.20117-.31446h.5664v-.27343a.71779.71779,0,0,0-.18847-.55957.85476.85476,0,0,0-.58106-.168,3.23989,3.23989,0,0,0-.99414.19629l-.16113-.46973a3.71152,3.71152,0,0,1,1.27441-.252,1.33328,1.33328,0,0,1,.97266.31836,1.21962,1.21962,0,0,1,.32227.90722v1.68653A.58465.58465,0,0,0,65.05752,123.50172Zm-.72071-.44531v-.84668h-.48242q-1.02246,0-1.02246.75586a.69186.69186,0,0,0,.16113.49707.62747.62747,0,0,0,.47559.168A.96106.96106,0,0,0,64.33681,123.05641Z" style="fill:#80a040"/><path d="M68.828,120.55739a1.15621,1.15621,0,0,1,.2832.82617v2.64649h-.64356v-2.55567a.81471.81471,0,0,0-.14746-.55273.55654.55654,0,0,0-.43359-.16114.8453.8453,0,0,0-.51856.168,1.77324,1.77324,0,0,0-.41992.4834v2.61817h-.64355v-3.68946h.55273l.05664.5459a1.45343,1.45343,0,0,1,.48633-.46191,1.2626,1.2626,0,0,1,.64063-.168A1.03085,1.03085,0,0,1,68.828,120.55739Z" style="fill:#80a040"/><path d="M73.17763,122.406H70.82607a1.441,1.441,0,0,0,.30762.89551.89413.89413,0,0,0,.68652.28711,1.49157,1.49157,0,0,0,.49024-.07715,1.9383,1.9383,0,0,0,.46875-.24512l.28027.38575a2.04233,2.04233,0,0,1-1.28809.46191,1.495,1.495,0,0,1-1.20117-.50391,2.07064,2.07064,0,0,1-.42968-1.38672,2.62412,2.62412,0,0,1,.18554-1.01855,1.59768,1.59768,0,0,1,.53125-.69629,1.35046,1.35046,0,0,1,.81543-.252,1.36581,1.36581,0,0,1,1.127.4834,2.06318,2.06318,0,0,1,.39258,1.33691C73.19228,122.18434,73.1874,122.29372,73.17763,122.406Zm-.62207-.51855a1.36613,1.36613,0,0,0-.21777-.833.76325.76325,0,0,0-.65039-.28711q-.791,0-.86133,1.16211h1.72949Zm-.30859-3.46485.28711.53907-1.48438.60253-.19531-.34375Z" style="fill:#80a040"/><path d="M76.99306,122.406H74.6415a1.441,1.441,0,0,0,.30762.89551.89413.89413,0,0,0,.68652.28711,1.49157,1.49157,0,0,0,.49024-.07715,1.9383,1.9383,0,0,0,.46875-.24512l.28027.38575a2.04233,2.04233,0,0,1-1.28809.46191,1.495,1.495,0,0,1-1.20117-.50391,2.07065,2.07065,0,0,1-.42969-1.38672,2.62412,2.62412,0,0,1,.18555-1.01855,1.59768,1.59768,0,0,1,.53125-.69629,1.35046,1.35046,0,0,1,.81543-.252,1.36581,1.36581,0,0,1,1.12695.4834,2.06318,2.06318,0,0,1,.39258,1.33691C77.00771,122.18434,77.00283,122.29372,76.99306,122.406Zm-.62207-.51855a1.36613,1.36613,0,0,0-.21777-.833.76325.76325,0,0,0-.65039-.28711q-.791,0-.86133,1.16211H76.371Z" style="fill:#80a040"/><circle cx="79.29324" cy="102.82683" r="2.95672" style="fill:#3f98cf"/><path d="M77.03144,130.23934l-.61648-4.122,1.32965.6378c3.47617-9.7599.82626-20.32438.82626-20.32438a3.07675,3.07675,0,0,0,3.34819-.90189c2.463,10.13138-1.79571,19.45039-2.99585,21.79158l1.35741.6511Z" style="fill:#80a040"/></svg>